<?xml version="1.0" standalone="no"?>
<!DOCTYPE svg PUBLIC "-//W3C//DTD SVG 20010904//EN"
 "http://www.w3.org/TR/2001/REC-SVG-20010904/DTD/svg10.dtd">
<svg version="1.0" xmlns="http://www.w3.org/2000/svg"
 width="1112.000000pt" height="1112.000000pt" viewBox="0 0 1112.000000 1112.000000"
 preserveAspectRatio="xMidYMid meet">
<metadata>
Created by potrace 1.11, written by Peter Selinger 2001-2013
</metadata>
<g transform="translate(0.000000,1112.000000) scale(0.100000,-0.100000)"
fill="#000000" stroke="none">
<path d="M138 10255 c4 -50 6 -55 28 -55 22 0 24 -4 24 -55 0 -54 0 -55 30
-55 27 0 30 -3 30 -30 0 -25 4 -30 24 -30 21 0 24 -6 31 -55 6 -50 9 -55 31
-55 22 0 24 -3 24 -54 0 -52 1 -55 28 -58 20 -2 28 -9 30 -28 2 -13 13 -30 23
-38 10 -7 22 -31 25 -53 5 -27 12 -39 23 -39 28 0 41 -22 41 -66 0 -37 3 -43
23 -46 19 -3 22 -10 25 -55 3 -48 5 -52 32 -58 23 -5 30 -12 30 -29 0 -15 9
-27 25 -34 21 -10 25 -18 25 -56 0 -41 2 -45 28 -48 25 -3 27 -7 30 -55 3 -48
5 -53 26 -53 24 0 36 -29 36 -86 0 -16 7 -24 23 -26 15 -2 23 -11 25 -30 2
-19 10 -28 25 -30 18 -2 24 -13 31 -55 8 -46 13 -53 33 -53 21 0 23 -4 23 -54
0 -52 1 -55 28 -58 21 -2 28 -9 30 -30 2 -16 7 -28 12 -28 20 0 40 -34 40 -70
0 -35 3 -39 28 -42 25 -3 27 -7 30 -55 3 -49 5 -53 28 -53 23 0 24 -3 24 -55
0 -54 0 -55 30 -55 27 0 30 -3 30 -29 0 -23 5 -30 22 -33 19 -2 24 -12 31 -55
8 -47 11 -53 33 -53 22 0 24 -4 24 -54 0 -52 1 -55 28 -58 25 -3 27 -7 30 -55
3 -49 5 -53 28 -53 20 0 24 -5 24 -30 0 -25 4 -30 24 -30 28 0 36 -16 36 -71
0 -35 3 -39 25 -39 24 0 25 -3 25 -55 0 -54 0 -55 30 -55 26 0 30 -4 30 -28 0
-19 7 -30 23 -37 17 -8 23 -20 25 -52 3 -37 6 -42 32 -48 27 -6 29 -10 32 -58
3 -44 6 -52 24 -55 22 -3 34 -35 34 -88 0 -19 5 -24 25 -24 20 0 25 -5 25 -24
0 -17 7 -26 24 -30 20 -5 25 -14 31 -55 5 -41 11 -50 28 -53 19 -3 22 -10 25
-55 3 -48 5 -52 30 -55 24 -3 27 -8 30 -46 2 -32 9 -46 28 -58 14 -10 24 -26
24 -40 0 -19 5 -24 24 -24 28 0 36 -16 36 -71 0 -35 3 -39 25 -39 24 0 25 -3
25 -54 0 -52 1 -55 28 -58 20 -2 28 -9 30 -28 2 -15 12 -30 25 -35 16 -7 24
-23 30 -57 7 -37 13 -48 30 -50 19 -3 22 -11 25 -55 3 -48 5 -52 30 -55 25 -3
27 -7 30 -55 3 -49 5 -53 28 -53 20 0 24 -5 24 -30 0 -25 4 -30 24 -30 26 0
36 -21 36 -77 0 -28 3 -33 25 -33 24 0 25 -3 25 -55 0 -54 0 -55 30 -55 26 0
30 -3 30 -29 0 -18 8 -34 21 -42 13 -9 22 -29 26 -56 5 -36 9 -42 32 -45 24
-3 26 -7 29 -55 3 -48 5 -53 26 -53 24 0 36 -29 36 -86 0 -19 5 -24 25 -24 21
0 25 -5 25 -29 0 -23 5 -30 23 -33 18 -2 24 -12 31 -55 8 -46 13 -53 33 -53
21 0 23 -4 23 -55 0 -54 0 -55 30 -55 30 0 30 -1 30 -55 0 -52 1 -55 25 -55
20 0 25 -5 25 -25 0 -15 6 -25 14 -25 26 0 46 -30 46 -70 0 -32 4 -39 23 -42
19 -3 22 -10 25 -55 3 -48 5 -52 32 -58 24 -5 30 -12 30 -33 0 -19 7 -30 23
-37 15 -7 25 -23 31 -52 6 -32 14 -43 30 -45 18 -3 21 -11 24 -55 3 -48 5 -53
26 -53 28 0 36 -17 36 -70 0 -32 4 -39 23 -42 15 -2 23 -11 25 -30 2 -18 11
-28 27 -32 20 -5 25 -14 31 -56 6 -44 9 -50 30 -50 22 0 24 -4 24 -54 0 -52 1
-55 28 -58 25 -3 27 -7 30 -55 3 -49 5 -53 28 -53 20 0 24 -5 24 -29 0 -25 4
-30 28 -33 25 -3 27 -7 30 -55 3 -48 5 -53 27 -53 21 0 24 -6 30 -55 7 -49 10
-55 31 -55 20 0 24 -5 24 -28 0 -19 7 -30 23 -37 16 -7 25 -23 31 -57 8 -41
13 -48 33 -48 21 0 23 -4 23 -54 0 -52 1 -55 28 -58 25 -3 27 -7 30 -55 3 -49
5 -53 28 -53 20 0 24 -5 24 -30 0 -25 4 -30 24 -30 28 0 36 -16 36 -71 0 -35
3 -39 25 -39 24 0 25 -3 25 -55 0 -54 0 -55 30 -55 27 0 30 -3 30 -34 0 -21 6
-36 16 -40 8 -3 24 -26 35 -51 14 -31 26 -45 39 -45 16 0 19 -9 22 -52 3 -46
6 -53 28 -58 22 -5 25 -12 28 -58 3 -48 5 -52 28 -52 19 0 24 -5 24 -25 0 -18
7 -28 24 -35 19 -7 26 -19 31 -54 6 -36 12 -46 29 -48 18 -3 21 -11 24 -55 3
-48 5 -52 30 -55 25 -3 27 -7 30 -55 3 -45 6 -52 27 -57 18 -5 25 -13 25 -31
0 -17 6 -25 18 -25 29 0 42 -21 42 -67 0 -39 2 -43 24 -43 21 0 24 -6 30 -54
6 -46 11 -55 29 -58 17 -2 23 -11 25 -35 2 -20 9 -33 17 -33 17 0 45 -50 45
-79 0 -13 8 -21 23 -23 19 -3 22 -10 25 -55 3 -48 5 -52 30 -55 25 -3 27 -7
30 -55 3 -49 5 -53 28 -53 20 0 24 -5 24 -30 0 -23 4 -30 20 -30 23 0 40 -34
40 -81 0 -24 4 -29 25 -29 24 0 25 -3 25 -55 0 -54 0 -55 30 -55 30 0 30 -1
30 -55 0 -52 1 -55 25 -55 20 0 27 -6 31 -29 4 -21 13 -31 28 -33 18 -3 21
-11 24 -55 3 -48 5 -53 26 -53 28 0 36 -17 36 -71 0 -35 3 -39 25 -39 21 0 25
-5 25 -29 0 -20 6 -30 20 -34 21 -6 40 -44 40 -83 0 -19 5 -24 25 -24 20 0 25
5 25 24 0 39 19 77 40 83 14 4 20 14 20 34 0 24 4 29 24 29 21 0 24 6 31 55 6
49 9 55 30 55 22 0 24 5 27 53 3 48 5 52 31 55 23 3 27 8 27 33 0 24 4 29 25
29 24 0 25 3 25 55 0 54 0 55 30 55 30 0 30 1 30 55 0 51 2 55 23 55 20 0 25
7 33 53 7 43 13 53 32 55 17 3 22 10 22 33 0 24 4 29 25 29 22 0 25 4 25 39 0
54 8 71 36 71 21 0 23 5 26 53 3 44 6 52 23 55 15 2 25 16 34 49 9 28 21 47
32 50 11 3 19 16 21 37 2 26 8 32 31 34 26 3 27 6 27 58 0 51 1 54 25 54 22 0
25 4 25 36 0 45 15 74 40 74 15 0 20 7 20 25 0 18 7 26 25 31 22 6 25 11 25
55 0 47 2 50 30 55 27 6 29 10 32 58 3 43 6 51 24 54 17 2 23 12 29 48 5 35
12 47 31 54 17 7 24 17 24 35 0 20 5 25 25 25 20 0 25 5 25 24 0 53 12 85 34
88 18 3 21 11 24 51 3 43 6 50 33 59 21 7 29 16 29 34 0 14 11 36 25 50 15 15
25 36 25 54 0 27 3 30 30 30 30 0 30 1 30 55 0 52 1 55 25 55 20 0 25 5 25 24
0 58 12 86 36 86 20 0 24 5 24 30 0 25 4 30 24 30 23 0 25 4 28 53 3 48 5 52
31 55 26 3 27 6 27 58 0 50 2 54 24 54 21 0 25 6 32 48 7 34 15 50 32 57 15 7
22 18 22 37 0 24 4 28 30 28 30 0 30 1 30 55 0 52 1 55 25 55 22 0 25 4 25 39
0 55 8 71 36 71 20 0 24 5 24 30 0 25 4 30 24 30 23 0 25 4 28 53 3 48 5 52
30 55 25 3 27 7 30 55 3 45 6 52 25 55 17 3 23 12 28 53 6 40 11 50 30 55 16
4 25 14 27 32 2 19 10 28 24 30 18 3 23 12 29 58 6 48 9 54 30 54 22 0 24 5
27 53 3 48 5 52 30 55 24 3 27 8 30 45 2 32 8 44 26 52 15 7 22 18 22 37 0 21
6 28 30 33 28 6 30 9 30 56 0 44 3 49 25 55 21 5 25 12 25 44 0 40 20 70 46
70 8 0 14 10 14 25 0 20 5 25 24 25 23 0 25 4 28 53 3 48 5 52 31 55 26 3 27
6 27 58 0 50 2 54 24 54 22 0 25 6 33 53 7 43 12 53 31 55 17 3 22 10 22 33 0
26 3 29 30 29 30 0 30 1 30 55 0 52 1 55 24 55 23 0 25 4 28 53 3 48 5 52 31
55 21 3 27 9 27 27 0 36 18 75 34 75 9 0 16 12 18 33 2 27 8 33 31 35 26 3 27
6 27 58 0 50 2 54 23 54 20 0 25 7 33 53 7 43 13 53 32 55 17 3 22 10 22 33 0
24 4 29 25 29 20 0 25 5 25 24 0 57 12 86 36 86 21 0 23 5 26 53 3 48 5 52 30
55 24 3 27 8 30 50 2 37 8 49 25 57 13 5 23 20 25 35 2 19 10 26 31 28 26 3
27 6 27 58 0 51 1 54 25 54 23 0 25 4 25 43 0 46 13 67 42 67 13 0 18 8 18 25
0 14 11 37 24 50 14 14 26 39 28 57 2 27 8 34 30 36 25 3 27 7 30 55 3 45 6
52 25 55 19 3 24 12 29 52 5 40 10 49 30 54 17 5 24 13 24 31 0 21 5 25 30 25
30 0 30 1 30 54 0 49 2 55 23 58 19 3 22 10 25 52 3 43 6 49 32 59 25 9 30 17
32 52 2 30 8 42 26 50 15 7 22 18 22 37 0 24 4 28 30 28 30 0 30 1 30 55 0 52
1 55 25 55 20 0 25 5 25 24 0 58 12 86 36 86 20 0 24 5 24 30 0 25 4 30 25 30
22 0 25 5 25 33 0 56 10 77 36 77 22 0 24 4 24 55 0 54 0 55 29 55 29 0 30 2
33 53 3 45 6 52 26 55 17 3 22 10 22 33 0 26 3 29 30 29 30 0 30 1 30 55 0 52
1 55 25 55 22 0 25 4 25 39 0 55 8 71 36 71 19 0 24 5 24 28 0 44 11 71 30 77
11 3 20 17 22 33 2 21 9 28 30 30 25 3 27 7 30 55 3 45 6 52 25 55 18 3 23 12
30 55 7 43 12 53 30 55 15 2 23 11 25 30 2 21 9 28 31 30 26 3 27 6 27 58 0
51 2 54 24 54 23 0 25 4 28 53 3 48 5 52 31 55 25 3 27 7 27 48 0 38 4 46 25
56 16 7 25 19 25 34 0 17 7 24 30 29 27 6 29 10 32 58 3 45 6 52 26 55 16 3
22 10 22 30 0 47 12 72 35 78 17 4 24 15 29 44 4 24 14 43 25 50 11 5 22 23
26 40 5 23 12 30 31 30 22 0 24 3 24 55 0 54 0 55 29 55 29 0 30 2 33 53 3 45
6 52 26 55 17 3 22 10 22 33 0 26 3 29 30 29 30 0 30 1 30 55 0 51 2 55 24 55
22 0 24 5 28 55 l3 55 -2057 0 -2058 0 0 -25 c0 -20 -5 -25 -24 -25 -21 0 -24
-6 -31 -55 -6 -49 -9 -55 -30 -55 -22 0 -24 -5 -27 -52 -3 -49 -5 -53 -30 -56
-24 -3 -28 -8 -28 -33 0 -16 -5 -29 -11 -29 -22 0 -39 -30 -39 -69 0 -39 -2
-41 -30 -41 -30 0 -30 -1 -30 -55 0 -51 -2 -55 -23 -55 -20 0 -25 -7 -33 -52
-7 -44 -13 -54 -31 -56 -18 -3 -23 -10 -23 -33 0 -24 -4 -29 -25 -29 -22 0
-25 -4 -25 -39 0 -54 -8 -71 -36 -71 -21 0 -23 -5 -26 -52 -3 -46 -6 -53 -25
-56 -13 -2 -23 -9 -23 -15 0 -35 -22 -85 -39 -90 -12 -3 -21 -15 -23 -33 -2
-23 -9 -30 -30 -32 -23 -3 -28 -8 -28 -31 0 -21 -6 -30 -22 -35 -50 -13 -51
-12 -46 77 7 100 22 155 64 227 18 30 32 55 31 56 -1 1 -41 -3 -90 -7 -130
-12 -238 -44 -372 -110 -136 -67 -221 -127 -324 -230 l-71 -72 0 114 c0 63 5
134 11 158 5 24 7 46 4 49 -8 8 -141 -63 -211 -114 -34 -24 -98 -78 -143 -119
-44 -42 -85 -74 -91 -70 -5 3 -10 28 -10 55 0 46 -2 49 -27 52 -23 2 -29 8
-31 36 -2 23 -8 32 -22 32 -21 0 -30 19 -30 65 0 29 -4 34 -27 37 -26 3 -28 7
-31 56 -3 47 -5 52 -26 52 -24 0 -36 29 -36 86 0 19 -5 24 -25 24 -21 0 -25 5
-25 29 0 23 -5 30 -22 33 -19 2 -25 12 -32 56 -8 45 -12 52 -32 52 -22 0 -24
4 -24 54 0 52 -1 55 -27 58 -25 3 -29 8 -33 48 -4 34 -10 47 -27 55 -16 7 -23
18 -23 37 0 22 -5 27 -27 30 -26 3 -28 7 -31 56 -3 48 -5 52 -28 52 -23 0 -24
3 -24 55 0 54 0 55 -30 55 -25 0 -30 4 -30 25 l0 25 -2057 0 -2058 0 3 -55z"/>
</g>
</svg>
